<?xml version="1.0" encoding="UTF-8"?>
<svg id="_Шар_1" data-name="Шар 1" xmlns="http://www.w3.org/2000/svg" viewBox="0 0 27.57 23.5">
  <path d="M11.13,5.86c.3.07.47.24.53.51s-.01.51-.2.72-.43.29-.73.22c-.59-.14-1.05-.24-1.41-.3,0,.69,0,1.73,0,3.12s0,2.43,0,3.12c0,.41,0,.98.01,1.73s.01,1.42.01,2.03,0,1.19-.02,1.73c0,.05,0,.13,0,.23,0,.23,0,.4-.01.53s-.02.31-.04.55-.04.44-.08.59-.08.33-.14.54-.13.38-.22.51-.19.27-.32.4-.27.23-.43.3c-.18.08-.36.12-.54.13s-.34-.02-.49-.08-.3-.14-.44-.23-.27-.22-.4-.35-.24-.28-.35-.42-.21-.29-.31-.45-.19-.3-.27-.43c-.01-.02-.02-.04-.03-.05-.8-1.31-1.38-2.7-1.76-4.18-.18-.69-.31-1.39-.39-2.11s-.12-1.45-.12-2.19.09-1.49.25-2.22.39-1.4.7-2c.37-.72.91-1.29,1.6-1.71s1.45-.62,2.26-.6v-2.65c-.56-.01-1.13-.02-1.69-.02-1,0-1.94.01-2.83.04-.14,0-.36.02-.67.04s-.55.04-.75.05-.42,0-.67-.02-.48-.08-.67-.15c-.2-.06-.34-.18-.45-.35S-.03,2.05.03,1.85c.05-.2.17-.35.35-.45s.37-.12.57-.07c.46.12.92.14,1.4.06.27-.01.66-.03,1.2-.04,1.14-.03,2.1-.04,2.86-.04.14,0,.34,0,.62,0s.49,0,.64,0c.02-.08.06-.21.1-.38s.07-.3.09-.38c.05-.18.15-.32.31-.42s.33-.14.51-.11.34.11.46.25.18.3.18.49v.61c.53.03,1.03.1,1.49.21.3.07.47.24.52.51s-.01.51-.2.72-.43.28-.72.21c-.2-.05-.38-.08-.57-.08-.07,0-.16-.01-.28-.02s-.2,0-.24-.01v2.65c.62.08,1.22.19,1.81.32ZM7.81,19.46c.02-.2.03-.41.04-.65s.01-.43.01-.59,0-.38,0-.68,0-.5,0-.6c0-1.22,0-3.06-.01-5.51,0-1,0-2.51,0-4.52-.58.02-1.12.18-1.61.49-.24.16-.45.36-.64.6s-.33.49-.44.74-.2.54-.28.87-.14.62-.17.88-.07.54-.09.87c-.13,1.55,0,3.07.38,4.58s1,2.91,1.85,4.2c.01.02.04.07.09.16s.1.17.14.23.09.14.16.21.12.12.18.15.12.03.18,0c.04-.02.07-.07.1-.16s.05-.2.07-.33.03-.25.03-.37.01-.24.01-.36,0-.19.01-.22Z"/>
  <path d="M27.07,4.09c.18.51.32,1.06.4,1.63s.12,1.17.1,1.77-.06,1.17-.13,1.69-.15,1.1-.27,1.71c-.49,2.46-1.25,4.84-2.28,7.11-.71,1.79-1.67,3.41-2.88,4.89-.2.23-.44.29-.7.21s-.43-.26-.51-.51-.02-.5.16-.75c1.27-1.59,2.25-3.35,2.94-5.28,1.07-2.47,1.76-5.03,2.07-7.66.15-1.18.12-2.36-.09-3.52-.03-.14-.06-.25-.07-.33s-.05-.18-.08-.32-.08-.24-.12-.32-.09-.17-.16-.26-.14-.17-.21-.23-.17-.1-.27-.14-.23-.06-.35-.06c-.42.06-.82.2-1.19.41s-.69.48-.96.81c-.58.6-1.09,1.3-1.53,2.1s-.79,1.64-1.04,2.52-.44,1.75-.56,2.62-.18,1.75-.18,2.62c0,.21-.07.38-.22.53s-.32.22-.53.22-.38-.07-.52-.22-.22-.32-.22-.53c-.06-2.78-.48-5.53-1.26-8.23-.4-1.34-1.05-2.56-1.93-3.64-.11-.12-.19-.21-.26-.28s-.17-.14-.29-.21-.24-.1-.36-.1c-.05,0-.1,0-.15.02s-.08.03-.11.04-.06.04-.1.08-.06.07-.08.09-.04.06-.06.12-.04.11-.05.12-.03.07-.05.15-.04.13-.05.14c-.24.72-.38,1.45-.42,2.17-.11,1.45-.07,2.94.11,4.46s.47,3.01.89,4.46.94,2.86,1.55,4.23,1.32,2.69,2.11,3.95c.09.16.13.32.11.47s-.08.28-.2.38-.24.17-.38.22-.29.04-.44,0-.28-.16-.38-.31c-1.75-2.79-3.04-5.77-3.88-8.95-.74-2.76-1.08-5.56-1.01-8.41,0-.19.02-.39.04-.58s.04-.42.07-.68.07-.5.12-.74.11-.48.17-.74.15-.49.24-.7.2-.42.32-.62.25-.36.41-.5.33-.24.51-.32.39-.12.62-.11.48.05.74.15c.27.09.52.23.76.41s.47.4.67.65.38.48.53.7.3.47.47.76c.64,1.12,1.13,2.31,1.46,3.57.17.61.32,1.28.45,1.99.51-1.64,1.28-3.14,2.31-4.48.22-.28.48-.55.76-.81s.6-.49.93-.69.67-.38,1.02-.51.7-.21,1.04-.23.67.02.98.12.59.29.85.57.47.65.64,1.1Z"/>
</svg>