<?xml version="1.0" encoding="UTF-8"?>
<svg id="_Шар_1" data-name="Шар 1" xmlns="http://www.w3.org/2000/svg" viewBox="0 0 67.94 23.5">
  <path d="M11.13,5.86c.3.07.47.24.53.51s-.01.51-.2.72-.43.29-.73.22c-.59-.14-1.05-.24-1.41-.3,0,.69,0,1.73,0,3.12s0,2.43,0,3.12c0,.41,0,.98.01,1.73s.01,1.42.01,2.03,0,1.19-.02,1.73c0,.05,0,.13,0,.23,0,.23,0,.4-.01.53s-.02.31-.04.55-.04.44-.08.59-.08.33-.14.54-.13.38-.22.51-.19.27-.32.4-.27.23-.43.3c-.18.08-.36.12-.54.13s-.34-.02-.49-.08-.3-.14-.44-.23-.27-.22-.4-.35-.24-.28-.35-.42-.21-.29-.31-.45-.19-.3-.27-.43c-.01-.02-.02-.04-.03-.05-.8-1.31-1.38-2.7-1.76-4.18-.18-.69-.31-1.39-.39-2.11s-.12-1.45-.12-2.19.09-1.49.25-2.22.39-1.4.7-2c.37-.72.91-1.29,1.6-1.71s1.45-.62,2.26-.6v-2.65c-.56-.01-1.13-.02-1.69-.02-1,0-1.94.01-2.83.04-.14,0-.36.02-.67.04s-.55.04-.75.05-.42,0-.67-.02-.48-.08-.67-.15c-.2-.06-.34-.18-.45-.35S-.03,2.05.03,1.85c.05-.2.17-.35.35-.45s.37-.12.57-.07c.46.12.92.14,1.4.06.27-.01.66-.03,1.2-.04,1.14-.03,2.1-.04,2.86-.04.14,0,.34,0,.62,0s.49,0,.64,0c.02-.08.06-.21.1-.38s.07-.3.09-.38c.05-.18.15-.32.31-.42s.33-.14.51-.11.34.11.46.25.18.3.18.49v.61c.53.03,1.03.1,1.49.21.3.07.47.24.52.51s-.01.51-.2.72-.43.28-.72.21c-.2-.05-.38-.08-.57-.08-.07,0-.16-.01-.28-.02s-.2,0-.24-.01v2.65c.62.08,1.22.19,1.81.32ZM7.81,19.46c.02-.2.03-.41.04-.65s.01-.43.01-.59,0-.38,0-.68,0-.5,0-.6c0-1.22,0-3.06-.01-5.51,0-1,0-2.51,0-4.52-.58.02-1.12.18-1.61.49-.24.16-.45.36-.64.6s-.33.49-.44.74-.2.54-.28.87-.14.62-.17.88-.07.54-.09.87c-.13,1.55,0,3.07.38,4.58s1,2.91,1.85,4.2c.01.02.04.07.09.16s.1.17.14.23.09.14.16.21.12.12.18.15.12.03.18,0c.04-.02.07-.07.1-.16s.05-.2.07-.33.03-.25.03-.37.01-.24.01-.36,0-.19.01-.22Z"/>
  <path d="M15.97,13.29c.21,0,.38.07.53.22s.22.32.22.53-.07.38-.22.52-.32.22-.53.22c-.85.04-1.65.03-2.41-.04-.04.2-.09.37-.16.53-.11.25-.27.46-.49.66-.16.14-.34.25-.54.32-.16.04-.31.04-.47,0s-.29-.12-.41-.23c-.25-.27-.41-.57-.46-.91-.07-.3-.11-.62-.11-.96,0-.66.16-1.27.49-1.83.16-.27.39-.44.7-.49.3-.04.56.04.78.26.27.32.42.68.44,1.08h0s.06.02.12.04.11.03.14.04h.09s.13.02.13.02c.03,0,.07,0,.13,0s.1,0,.15,0,.09,0,.13,0c.21,0,.51,0,.9,0s.67,0,.85,0ZM12,14.72h0s-.02.02-.04.05h0s0-.01,0-.02,0,0,.01-.02.01-.01.01-.02Z"/>
  <path d="M21.37,13.67c.09-.16.2-.27.35-.33s.29-.06.43-.02.27.12.38.23.19.23.21.39,0,.32-.08.48c-.05.1-.15.27-.28.53s-.25.48-.35.68-.24.45-.41.74-.33.56-.48.78-.32.47-.52.72-.39.47-.58.64-.39.32-.62.45-.44.21-.66.25-.44.01-.69-.06-.48-.2-.71-.4c-.28-.23-.52-.52-.71-.88s-.34-.73-.42-1.12-.15-.8-.2-1.24-.07-.85-.06-1.24,0-.77,0-1.12v-.03c-.02-.08-.01-.17.01-.25.04-2.32.33-4.61.86-6.87.07-.28.13-.52.18-.73s.13-.46.22-.76.19-.57.29-.8.22-.48.35-.72.29-.47.46-.67.36-.36.55-.5c.36-.23.68-.33.98-.29s.56.18.78.41.39.51.52.83.21.64.23.96c.03.37.02.75-.01,1.15s-.09.77-.17,1.12-.18.73-.32,1.13-.28.76-.42,1.09-.32.69-.53,1.09-.4.74-.58,1.04-.39.64-.64,1.02-.46.7-.64.96-.39.56-.64.93c0,.06,0,.16,0,.29s0,.23,0,.29c0,.84.07,1.66.24,2.44,0,.02.01.06.03.14s.03.13.04.17.02.1.04.18.04.15.06.19.04.11.07.18.06.13.08.18.06.09.1.14.08.09.12.12.09.06.14.07c.04.02.09.02.13.02s.09,0,.13-.01.08-.03.13-.06.09-.06.12-.08.08-.06.12-.11.08-.08.11-.11.06-.07.11-.13.07-.09.09-.12.05-.07.09-.12.06-.09.07-.1c.69-1,1.31-2.07,1.87-3.19ZM18.56,5.39c-.28.95-.5,1.92-.66,2.93-.11.64-.2,1.33-.27,2.05.33-.52.62-1.01.88-1.49s.49-.97.71-1.5.39-1.07.52-1.61.18-1.08.19-1.6c0-.02,0-.08,0-.19s0-.19,0-.25,0-.13-.02-.22-.03-.17-.06-.23-.06-.12-.11-.16c-.04-.03-.06-.06-.08-.08h0c.03.05.02.1-.04.13-.13.14-.24.3-.32.48-.31.53-.56,1.11-.75,1.74Z"/>
  <path d="M21.66,11.09c-.08-.05-.15-.12-.19-.21-.29-.39-.54-.76-.75-1.12-.1-.18-.12-.37-.07-.58.05-.2.17-.34.34-.45.08-.05.18-.08.28-.09.1-.02.2-.02.3.01.19.05.34.17.45.35,0,.02.02.04.04.06s.03.04.04.06c.08-.14.13-.25.17-.32.1-.18.25-.29.45-.35.2-.05.39-.03.57.07.18.11.3.26.35.45.05.21.03.4-.08.58-.23.47-.49.91-.76,1.32-.07.11-.17.19-.3.26h0c-.06.04-.11.06-.14.08-.02,0-.06,0-.11,0,0,0,0,0-.02,0h-.04c-.06,0-.12,0-.17,0h-.09s-.08-.04-.13-.08h-.02s-.07-.04-.1-.06ZM25.57,13.34c.2.05.35.17.45.35s.13.37.08.57c-.34,1.04-.85,2.01-1.52,2.9-.27.37-.62.61-1.07.72s-.87.06-1.28-.15c-.18-.11-.33-.25-.44-.43s-.2-.38-.25-.6-.08-.43-.1-.61-.03-.4-.03-.64c0-.31.02-.77.06-1.39s.06-1.07.06-1.36c0-.2.07-.38.22-.52s.32-.22.53-.22.38.07.52.22.22.32.22.52c0,.3-.02.76-.06,1.37s-.06,1.08-.06,1.4c0,.21,0,.4.02.56,0,.02,0,.03,0,.05v.04s.03.12.05.21c0,.01,0,.03.01.05s.01.04.01.05v.02h.15s.04-.03.08-.05l.06-.06.07-.07.06-.06s.06-.06.08-.08v.02s.02-.04.04-.06c0,0,0-.01.01-.02h0s0,0-.01.01l.02-.02c.2-.28.37-.56.51-.86.22-.44.41-.88.57-1.32.06-.2.18-.34.35-.45s.37-.13.57-.08ZM23.04,16.47h0s.02.04.02.04v-.02l-.03-.02ZM23.08,16.47h0s0,0,.02,0,.01-.01.02-.01l-.04.02ZM23.54,16.06h0s-.04.05-.04.05c0,0,.01-.02.02-.03s.02-.02.02-.02Z"/>
  <path d="M31.76,13.68c.1.18.12.37.07.56s-.17.35-.34.45c-.88.41-1.77.75-2.68,1.03-.84.31-1.71.4-2.61.26-.36-.08-.7-.26-1-.53s-.51-.59-.63-.95-.11-.73.02-1.12c.11-.25.26-.48.46-.68s.42-.35.68-.46c.27-.19.57-.3.89-.34s.64,0,.95.13c.18.12.31.28.38.48s.08.41.02.62c-.14.31-.35.56-.65.74-.33.24-.67.41-1.04.51.02.01.06.03.11.06s.09.05.11.06c-.04-.02-.06-.04-.06-.04.04.02.07.04.09.05l.11.02c.07.01.11.02.13.02.1,0,.24,0,.44-.02h.1s.01,0,.01,0l.28-.05c.24-.05.41-.09.52-.12.35-.09.7-.2,1.04-.33.3-.11.62-.23.96-.37l.11-.04.18-.08s.1-.04.17-.08.13-.05.16-.07c.18-.1.37-.12.57-.07s.35.16.46.33Z"/>
  <path d="M51.17,4.09c.18.51.32,1.06.4,1.63s.12,1.17.1,1.77-.06,1.17-.13,1.69-.15,1.1-.27,1.71c-.49,2.46-1.25,4.84-2.28,7.11-.71,1.79-1.67,3.41-2.88,4.89-.2.23-.44.29-.7.21s-.43-.26-.51-.51-.02-.5.16-.75c1.27-1.59,2.25-3.35,2.94-5.28,1.07-2.47,1.76-5.03,2.07-7.66.15-1.18.12-2.36-.09-3.52-.03-.14-.06-.25-.07-.33s-.05-.18-.08-.32-.08-.24-.12-.32-.09-.17-.16-.26-.14-.17-.21-.23-.17-.1-.27-.14-.23-.06-.35-.06c-.42.06-.82.2-1.19.41s-.69.48-.96.81c-.58.6-1.09,1.3-1.53,2.1s-.79,1.64-1.04,2.52-.44,1.75-.56,2.62-.18,1.75-.18,2.62c0,.21-.07.38-.22.53s-.32.22-.53.22-.38-.07-.52-.22-.22-.32-.22-.53c-.06-2.78-.48-5.53-1.26-8.23-.4-1.34-1.05-2.56-1.93-3.64-.11-.12-.19-.21-.26-.28s-.17-.14-.29-.21-.24-.1-.36-.1c-.05,0-.1,0-.15.02s-.08.03-.11.04-.06.04-.1.08-.06.07-.08.09-.04.06-.06.12-.04.11-.05.12-.03.07-.05.15-.04.13-.05.14c-.24.72-.38,1.45-.42,2.17-.11,1.45-.07,2.94.11,4.46s.47,3.01.89,4.46.94,2.86,1.55,4.23,1.32,2.69,2.11,3.95c.09.16.13.32.11.47s-.08.28-.2.38-.24.17-.38.22-.29.04-.44,0-.28-.16-.38-.31c-1.75-2.79-3.04-5.77-3.88-8.95-.74-2.76-1.08-5.56-1.01-8.41,0-.19.02-.39.04-.58s.04-.42.07-.68.07-.5.12-.74.11-.48.17-.74.15-.49.24-.7.2-.42.32-.62.25-.36.41-.5.33-.24.51-.32.39-.12.62-.11.48.05.74.15c.27.09.52.23.76.41s.47.4.67.65.38.48.53.7.3.47.47.76c.64,1.12,1.13,2.31,1.46,3.57.17.61.32,1.28.45,1.99.51-1.64,1.28-3.14,2.31-4.48.22-.28.48-.55.76-.81s.6-.49.93-.69.67-.38,1.02-.51.7-.21,1.04-.23.67.02.98.12.59.29.85.57.47.65.64,1.1Z"/>
  <path d="M57.64,13.29c.21,0,.38.07.53.22s.22.32.22.53-.07.38-.22.52-.32.22-.53.22c-.85.04-1.65.03-2.41-.04-.04.2-.09.37-.16.53-.11.25-.27.46-.49.66-.16.14-.34.25-.55.32-.16.04-.31.04-.47,0s-.29-.12-.41-.23c-.25-.27-.41-.57-.46-.91-.07-.3-.11-.62-.11-.96,0-.66.16-1.27.49-1.83.16-.27.39-.44.7-.49.3-.04.56.04.78.26.27.32.42.68.44,1.08h0s.06.02.12.04.11.03.14.04h.09s.13.02.13.02c.03,0,.07,0,.13,0s.1,0,.15,0,.09,0,.13,0c.21,0,.51,0,.9,0s.67,0,.85,0ZM53.67,14.72h0s-.02.02-.04.05h0s0-.01,0-.02,0,0,.01-.02.01-.01.01-.02Z"/>
  <path d="M57.63,11.09c-.08-.05-.15-.12-.19-.21-.29-.39-.54-.76-.75-1.12-.1-.18-.12-.37-.07-.58.05-.2.17-.34.34-.45.08-.05.18-.08.28-.09.1-.02.2-.02.3.01.19.05.34.17.45.35,0,.02.02.04.04.06s.03.04.04.06c.08-.14.13-.25.17-.32.1-.18.25-.29.45-.35.2-.05.39-.03.57.07.18.11.3.26.35.45.05.21.03.4-.08.58-.23.47-.49.91-.76,1.32-.07.11-.17.19-.3.26h0c-.06.04-.11.06-.14.08-.02,0-.06,0-.11,0,0,0,0,0-.02,0h-.04c-.06,0-.12,0-.17,0h-.09s-.08-.04-.13-.08h-.02s-.07-.04-.1-.06ZM61.54,13.34c.2.05.35.17.45.35s.13.37.08.57c-.34,1.04-.85,2.01-1.52,2.9-.27.37-.62.61-1.07.72s-.87.06-1.28-.15c-.18-.11-.33-.25-.44-.43s-.2-.38-.25-.6-.08-.43-.1-.61-.03-.4-.03-.64c0-.31.02-.77.06-1.39s.06-1.07.06-1.36c0-.2.07-.38.22-.52s.32-.22.53-.22.38.07.52.22.22.32.22.52c0,.3-.02.76-.06,1.37s-.06,1.08-.06,1.4c0,.21,0,.4.02.56,0,.02,0,.03,0,.05v.04s.03.12.05.21c0,.01,0,.03.01.05s.01.04.01.05v.02h.15s.04-.03.08-.05l.06-.06.07-.07.06-.06s.06-.06.08-.08v.02s.02-.04.04-.06c0,0,0-.01.01-.02h0s0,0-.01.01l.02-.02c.2-.28.37-.56.51-.86.22-.44.41-.88.57-1.32.06-.2.18-.34.35-.45s.37-.13.57-.08ZM59.01,16.47h0s.02.04.02.04v-.02l-.03-.02ZM59.05,16.47h0s0,0,.02,0,.01-.01.02-.01l-.04.02ZM59.52,16.06h0s-.04.05-.04.05c0,0,.01-.02.02-.03s.02-.02.02-.02Z"/>
  <path d="M67.84,13.6c.1.18.13.37.08.57s-.16.35-.34.46c-.2.14-.54.38-1.02.71s-.9.63-1.25.88-.68.49-1,.74c-.47.35-.86.65-1.16.91-.49.78-1.12,1.44-1.89,1.97-.14.1-.3.14-.47.11s-.31-.11-.42-.23-.18-.27-.23-.43-.01-.32.09-.48c.47-.68,1.04-1.3,1.71-1.86.11-.21.21-.43.3-.66.05-.14.08-.25.11-.33s.03-.19.01-.31-.07-.22-.17-.27c-.13-.07-.35-.13-.64-.16s-.49-.07-.6-.11c-.16-.06-.29-.14-.39-.23s-.17-.2-.21-.3-.05-.23-.05-.37.03-.27.06-.39.08-.25.15-.4.13-.28.18-.38.12-.21.19-.34c.07-.11.24-.39.53-.83s.49-.79.62-1.04c.06-.13.16-.23.28-.3s.26-.09.41-.06c.02,0,.05,0,.1,0,.27,0,.48.11.64.33.04.05.08.12.12.21.04.08.06.16.08.25.01.07.03.16.04.28.04.28.05.56.04.86,0,.2-.08.38-.22.53-.15.15-.32.22-.53.22-.19,0-.35-.07-.5-.2,0,0,0,.01-.01.02s-.01.02-.01.03c-.2.32-.36.58-.47.79v.02c.18.03.27.05.28.05.34.07.65.21.93.43.38.31.59.71.63,1.2.35-.26,1.34-.97,2.99-2.13.18-.1.37-.13.57-.07s.35.17.45.34ZM61.78,14.16s.02-.03.02-.03c0,0,0,0-.01.01,0,0,0,0,0,.02Z"/>
</svg>