<svg width="1440" height="344" viewBox="0 0 1440 344" fill="none" xmlns="http://www.w3.org/2000/svg">
<path d="M-32.1178 11.7V4.05001H86.4572V11.7L53.3822 19.575L127.632 278.55L133.707 306.675L139.557 278.775L219.432 19.575L187.707 11.7V4.05001H274.557V11.7L243.957 19.575L135.732 339.3H97.9322L-3.99277 19.575L-32.1178 11.7ZM406.052 343.575C373.652 343.575 346.727 336.45 325.277 322.2C303.977 307.95 288.077 288.225 277.577 263.025C267.077 237.825 261.827 208.8 261.827 175.95C261.827 148.5 265.352 123.975 272.402 102.375C279.452 80.625 289.577 62.175 302.777 47.025C315.977 31.725 331.877 20.1 350.477 12.15C369.227 4.05001 390.152 9.17912e-06 413.252 9.17912e-06C445.352 9.17912e-06 471.977 6.90001 493.127 20.7C514.277 34.35 530.027 53.625 540.377 78.525C550.877 103.425 556.127 132.525 556.127 165.825C556.127 193.125 552.602 217.725 545.552 239.625C538.652 261.525 528.602 280.275 515.402 295.875C502.352 311.325 486.602 323.175 468.152 331.425C449.702 339.525 429.002 343.575 406.052 343.575ZM408.302 331.875C426.902 331.875 442.952 325.725 456.452 313.425C469.952 300.975 480.377 282.45 487.727 257.85C495.077 233.25 498.752 202.575 498.752 165.825C498.752 135.825 495.452 109.2 488.852 85.95C482.252 62.7 472.352 44.55 459.152 31.5C445.952 18.3 429.377 11.7 409.427 11.7C390.827 11.7 374.777 17.7 361.277 29.7C347.777 41.7 337.352 59.85 330.002 84.15C322.652 108.45 318.977 139.05 318.977 175.95C318.977 207.9 322.277 235.575 328.877 258.975C335.477 282.375 345.377 300.375 358.577 312.975C371.777 325.575 388.352 331.875 408.302 331.875ZM744.997 343.125C720.397 343.125 698.647 338.775 679.747 330.075C660.997 321.375 645.172 309.375 632.272 294.075C619.522 278.625 609.847 260.7 603.247 240.3C596.797 219.9 593.572 198.075 593.572 174.825C593.572 148.575 597.322 124.8 604.822 103.5C612.322 82.05 623.122 63.675 637.222 48.375C651.322 32.925 668.122 21 687.622 12.6C707.272 4.20001 729.097 9.17912e-06 753.097 9.17912e-06C767.947 9.17912e-06 780.547 0.750008 790.897 2.25001C801.397 3.75001 810.472 5.55001 818.122 7.65002C825.922 9.60002 832.897 11.325 839.047 12.825C845.197 14.175 851.422 14.85 857.722 14.85L851.197 96.975H820.372L809.797 32.175C807.697 29.025 804.397 25.95 799.897 22.95C795.547 19.8 789.622 17.25 782.122 15.3C774.772 13.2 765.697 12.15 754.897 12.15C732.397 12.15 713.497 18.225 698.197 30.375C682.897 42.525 671.347 60.225 663.547 83.475C655.897 106.725 652.072 135.225 652.072 168.975C651.922 189.075 653.647 208.8 657.247 228.15C660.997 247.35 666.847 264.75 674.797 280.35C682.897 295.8 693.397 308.1 706.297 317.25C719.197 326.4 735.022 330.975 753.772 330.975C762.472 330.975 770.647 329.925 778.297 327.825C785.947 325.725 792.697 322.8 798.547 319.05C804.397 315.3 808.972 311.025 812.272 306.225V197.55L762.547 192.825V178.65H885.622V192.825L861.097 197.55V320.4C855.247 320.55 849.697 321.45 844.447 323.1C839.347 324.6 833.872 326.475 828.022 328.725C822.322 330.975 815.722 333.225 808.222 335.475C800.722 337.575 791.872 339.375 781.672 340.875C771.472 342.375 759.247 343.125 744.997 343.125ZM1052.98 342.675C1024.78 342.675 1001.15 338.475 982.101 330.075C963.051 321.675 948.651 307.95 938.901 288.9C929.151 269.85 924.276 244.5 924.276 212.85V19.35L891.876 12.15V4.05001H1014.5V12.15L978.051 19.35V220.725C978.051 242.775 979.776 260.925 983.226 275.175C986.826 289.425 991.926 300.6 998.526 308.7C1005.13 316.8 1013.08 322.5 1022.38 325.8C1031.83 328.95 1042.4 330.525 1054.1 330.525C1070.9 330.525 1085.6 326.025 1098.2 317.025C1110.95 308.025 1120.93 294.375 1128.13 276.075C1135.33 257.625 1138.85 234.525 1138.7 206.775L1137.13 19.575L1104.5 12.15V4.05001H1185.95V12.15L1157.15 19.35L1154.68 205.425C1154.53 229.875 1151.98 250.8 1147.03 268.2C1142.23 285.45 1135.33 299.55 1126.33 310.5C1117.33 321.45 1106.6 329.55 1094.15 334.8C1081.85 340.05 1068.13 342.675 1052.98 342.675ZM1231.08 322.425V19.575L1200.25 12.15V4.05001H1426.15L1432.9 76.725H1413.33L1388.8 20.925L1283.73 16.2V161.55L1356.63 157.725L1368.55 112.5H1380.25V222.75H1368.55L1356.63 175.5L1283.73 172.125V326.7L1403.43 318.375L1435.83 248.85L1456.75 254.7L1440.33 338.4H1200.03V330.3L1231.08 322.425Z" fill="black" fill-opacity="0.7"/>
</svg>
